<?xml version="1.0" encoding="UTF-8"?>
<svg width="252px" height="84px" viewBox="0 0 252 84" version="1.1" xmlns="http://www.w3.org/2000/svg" xmlns:xlink="http://www.w3.org/1999/xlink">
    <title>SpecifiedBy Logo (White)</title>
    <g id="Page-1" stroke="none" stroke-width="1" fill="none" fill-rule="evenodd">
        <g id="SpecifiedBy-Logo-(White)" transform="translate(0.830000, 0.660000)">
            <g id="Group" transform="translate(0.000000, 50.780000)" fill="#FFFFFF" fill-rule="nonzero">
                <path d="M7.22,15.21 C7.1,14.88 7.03,14.39 7,13.74 C6.59,14.27 6.07,14.69 5.43,14.98 C4.79,15.27 4.12,15.41 3.41,15.41 C2.39,15.41 1.57,15.13 0.94,14.56 C0.31,13.99 -7.10542736e-15,13.28 -7.10542736e-15,12.41 C-7.10542736e-15,11.38 0.43,10.57 1.28,9.97 C2.13,9.37 3.33,9.07 4.86,9.07 L6.98,9.07 L6.98,7.87 C6.98,7.12 6.75,6.52 6.28,6.09 C5.81,5.66 5.14,5.44 4.24,5.44 C3.43,5.44 2.75,5.65 2.22,6.06 C1.69,6.47 1.42,6.98 1.42,7.56 L0.25,7.55 C0.25,6.71 0.64,5.98 1.42,5.37 C2.2,4.76 3.16,4.45 4.3,4.45 C5.48,4.45 6.41,4.74 7.09,5.33 C7.77,5.92 8.12,6.74 8.14,7.8 L8.14,12.8 C8.14,13.82 8.25,14.59 8.46,15.09 L8.46,15.21 L7.22,15.21 L7.22,15.21 Z M3.55,14.37 C4.33,14.37 5.03,14.18 5.64,13.8 C6.25,13.42 6.7,12.92 6.98,12.29 L6.98,9.96 L4.89,9.96 C3.72,9.97 2.81,10.19 2.16,10.6 C1.51,11.01 1.17,11.58 1.17,12.3 C1.17,12.89 1.39,13.38 1.83,13.77 C2.27,14.16 2.85,14.37 3.55,14.37 Z" id="Shape"></path>
                <path d="M24.62,10.03 C24.62,11.68 24.26,12.98 23.53,13.95 C22.8,14.92 21.82,15.4 20.6,15.4 C19.15,15.4 18.05,14.89 17.28,13.88 L17.28,19.27 L16.12,19.27 L16.12,4.64 L17.2,4.64 L17.26,6.13 C18.02,5 19.13,4.44 20.57,4.44 C21.83,4.44 22.82,4.92 23.54,5.88 C24.26,6.84 24.62,8.17 24.62,9.86 L24.62,10.03 Z M23.45,9.82 C23.45,8.47 23.17,7.41 22.62,6.63 C22.07,5.85 21.3,5.46 20.31,5.46 C19.59,5.46 18.98,5.63 18.46,5.98 C17.94,6.33 17.55,6.83 17.28,7.48 L17.28,12.55 C17.56,13.16 17.96,13.62 18.48,13.94 C19,14.26 19.62,14.42 20.33,14.42 C21.31,14.42 22.08,14.03 22.63,13.24 C23.18,12.45 23.45,11.32 23.45,9.82 Z" id="Shape"></path>
                <path d="M32.09,5.63 C31.84,5.58 31.58,5.56 31.3,5.56 C30.57,5.56 29.95,5.76 29.45,6.17 C28.95,6.58 28.59,7.17 28.37,7.94 L28.37,15.2 L27.21,15.2 L27.21,4.64 L28.35,4.64 L28.37,6.32 C28.99,5.07 29.98,4.44 31.35,4.44 C31.68,4.44 31.93,4.48 32.12,4.57 L32.09,5.63 Z" id="Path"></path>
                <path d="M33.1,9.77 C33.1,8.75 33.3,7.84 33.69,7.03 C34.08,6.22 34.64,5.58 35.36,5.13 C36.08,4.68 36.89,4.45 37.81,4.45 C39.22,4.45 40.36,4.94 41.23,5.93 C42.1,6.92 42.54,8.22 42.54,9.85 L42.54,10.09 C42.54,11.11 42.34,12.03 41.95,12.85 C41.56,13.67 41,14.3 40.28,14.74 C39.56,15.18 38.75,15.4 37.83,15.4 C36.43,15.4 35.29,14.91 34.42,13.92 C33.55,12.93 33.11,11.63 33.11,10 L33.11,9.77 L33.1,9.77 Z M34.27,10.09 C34.27,11.35 34.6,12.39 35.25,13.2 C35.9,14.01 36.76,14.42 37.82,14.42 C38.87,14.42 39.73,14.01 40.38,13.2 C41.03,12.39 41.36,11.32 41.36,9.99 L41.36,9.77 C41.36,8.96 41.21,8.22 40.91,7.55 C40.61,6.88 40.19,6.36 39.65,5.99 C39.11,5.62 38.49,5.44 37.79,5.44 C36.75,5.44 35.9,5.85 35.24,6.67 C34.58,7.49 34.25,8.56 34.25,9.88 L34.25,10.09 L34.27,10.09 Z" id="Shape"></path>
                <path d="M44.48,9.82 C44.48,8.18 44.85,6.87 45.58,5.9 C46.31,4.93 47.31,4.44 48.56,4.44 C49.99,4.44 51.07,5 51.82,6.13 L51.82,0.2 L52.98,0.2 L52.98,15.2 L51.89,15.2 L51.84,13.79 C51.09,14.86 49.99,15.39 48.54,15.39 C47.32,15.39 46.34,14.9 45.6,13.92 C44.86,12.94 44.48,11.62 44.48,9.95 L44.48,9.82 Z M45.66,10.03 C45.66,11.38 45.93,12.44 46.47,13.22 C47.01,14 47.77,14.39 48.76,14.39 C50.2,14.39 51.22,13.76 51.83,12.49 L51.83,7.53 C51.22,6.16 50.21,5.47 48.78,5.47 C47.8,5.47 47.03,5.86 46.49,6.63 C45.95,7.4 45.66,8.53 45.66,10.03 Z" id="Shape"></path>
                <path d="M62.86,13.87 C62.16,14.89 61.03,15.4 59.49,15.4 C58.36,15.4 57.51,15.07 56.92,14.42 C56.33,13.77 56.03,12.8 56.02,11.51 L56.02,4.63 L57.18,4.63 L57.18,11.36 C57.18,13.37 57.99,14.38 59.62,14.38 C61.31,14.38 62.38,13.68 62.83,12.28 L62.83,4.63 L64,4.63 L64,15.2 L62.87,15.2 L62.86,13.87 Z" id="Path"></path>
                <path d="M70.95,14.41 C71.76,14.41 72.45,14.18 73,13.72 C73.55,13.26 73.85,12.67 73.89,11.94 L75.01,11.94 C74.98,12.58 74.78,13.17 74.4,13.7 C74.02,14.23 73.54,14.65 72.92,14.95 C72.3,15.25 71.65,15.4 70.94,15.4 C69.55,15.4 68.45,14.92 67.64,13.95 C66.83,12.98 66.42,11.69 66.42,10.06 L66.42,9.71 C66.42,8.67 66.6,7.75 66.97,6.95 C67.34,6.15 67.86,5.53 68.54,5.09 C69.22,4.65 70.02,4.44 70.93,4.44 C72.09,4.44 73.04,4.78 73.8,5.48 C74.56,6.18 74.95,7.08 75.01,8.2 L73.89,8.2 C73.84,7.37 73.54,6.71 73,6.2 C72.46,5.69 71.77,5.44 70.94,5.44 C69.89,5.44 69.07,5.82 68.48,6.58 C67.89,7.34 67.61,8.41 67.61,9.78 L67.61,10.12 C67.61,11.47 67.9,12.52 68.48,13.27 C69.06,14.02 69.89,14.41 70.95,14.41 Z" id="Path"></path>
                <path d="M79.16,1.93 L79.16,4.64 L81.35,4.64 L81.35,5.6 L79.16,5.6 L79.16,12.65 C79.16,13.24 79.27,13.67 79.48,13.96 C79.69,14.25 80.04,14.39 80.54,14.39 C80.74,14.39 81.05,14.36 81.49,14.29 L81.54,15.24 C81.23,15.35 80.82,15.4 80.29,15.4 C79.49,15.4 78.91,15.17 78.54,14.7 C78.17,14.23 77.99,13.55 77.99,12.64 L77.99,5.59 L76.05,5.59 L76.05,4.63 L77.99,4.63 L77.99,1.92 L79.16,1.92 L79.16,1.93 Z" id="Path"></path>
                <path d="M87.99,9.77 C87.99,8.75 88.19,7.84 88.58,7.03 C88.97,6.22 89.53,5.58 90.25,5.13 C90.97,4.68 91.78,4.45 92.7,4.45 C94.11,4.45 95.25,4.94 96.12,5.93 C96.99,6.92 97.43,8.22 97.43,9.85 L97.43,10.09 C97.43,11.11 97.23,12.03 96.84,12.85 C96.45,13.67 95.89,14.3 95.17,14.74 C94.45,15.18 93.64,15.4 92.72,15.4 C91.32,15.4 90.18,14.91 89.31,13.92 C88.44,12.93 88,11.63 88,10 L88,9.77 L87.99,9.77 Z M89.16,10.09 C89.16,11.35 89.49,12.39 90.14,13.2 C90.79,14.01 91.65,14.42 92.71,14.42 C93.76,14.42 94.62,14.01 95.27,13.2 C95.92,12.39 96.25,11.32 96.25,9.99 L96.25,9.77 C96.25,8.96 96.1,8.22 95.8,7.55 C95.5,6.88 95.08,6.36 94.54,5.99 C94,5.62 93.38,5.44 92.68,5.44 C91.64,5.44 90.79,5.85 90.13,6.67 C89.47,7.49 89.14,8.56 89.14,9.88 L89.14,10.09 L89.16,10.09 Z" id="Shape"></path>
                <path d="M100.68,15.21 L100.68,5.6 L98.93,5.6 L98.93,4.64 L100.68,4.64 L100.68,3.36 C100.68,2.28 100.95,1.45 101.51,0.87 C102.07,0.29 102.83,0 103.81,0 C104.25,0 104.67,0.05 105.05,0.16 L104.96,1.13 C104.63,1.05 104.28,1.01 103.9,1.01 C103.26,1.01 102.75,1.21 102.4,1.61 C102.05,2.01 101.86,2.58 101.86,3.32 L101.86,4.63 L104.38,4.63 L104.38,5.59 L101.86,5.59 L101.86,15.2 L100.68,15.2 L100.68,15.21 Z" id="Path"></path>
            </g>
            <g id="Group" transform="translate(100.990000, 35.580000)">
                <g transform="translate(14.020000, 16.680000)" fill="#FFFFFF" fill-rule="nonzero" id="Path">
                    <path d="M11.26,0.98 L11.26,4.29 L11.26,4.41 C11.26,4.48 11.2,4.53 11.16,4.53 C11.12,4.53 11.06,4.49 10.98,4.44 C10.39,3.94 9.06,3.5 8.05,3.5 C5.73,3.5 3.94,5.08 3.94,7.13 C3.94,9.07 5.67,10.49 8.01,10.49 C9.17,10.49 10.35,10.1 11,9.51 C11.06,9.44 11.12,9.4 11.16,9.4 C11.26,9.4 11.28,9.45 11.28,9.74 L11.28,13.05 C11.28,13.3 11.16,13.39 10.73,13.53 C9.69,13.85 8.75,14.01 7.82,14.01 C6.48,14.01 5.17,13.69 3.95,13.08 C1.4,11.8 0,9.68 0,7.08 C0,3.15 3.46,0.01 7.78,0.01 C8.72,0.01 10.06,0.22 10.77,0.51 L10.99,0.6 C11.22,0.71 11.26,0.78 11.26,0.98 Z"></path>
                    <path d="M30.74,7.55 C30.74,9.13 30.78,9.37 31.15,9.94 C31.56,10.6 32.37,10.97 33.29,10.97 C34.25,10.97 35.12,10.54 35.53,9.88 C35.86,9.33 35.92,9.01 35.92,7.55 L35.92,0.32 L39.75,0.32 L39.75,8.03 C39.75,10.02 39.4,11.04 38.32,12.14 C37.08,13.39 35.37,14.03 33.23,14.03 C30.99,14.03 28.99,13.26 27.97,12.02 C27.18,11.08 26.91,10.03 26.91,8.03 L26.91,0.32 L30.74,0.32 L30.74,7.55 Z"></path>
                    <path d="M49.03,3.79 C48.2,3.17 47.4,2.88 46.54,2.88 C45.6,2.88 44.89,3.38 44.89,4.04 C44.89,4.29 45.01,4.52 45.24,4.7 C45.5,4.91 45.85,5.07 46.22,5.18 C46.44,5.25 46.89,5.36 47.54,5.54 C48.9,5.91 49.58,6.25 50.21,6.88 C50.88,7.52 51.15,8.23 51.15,9.26 C51.15,10.08 50.91,11.11 50.6,11.68 C49.77,13.12 47.79,14.03 45.41,14.03 C44.25,14.03 43.27,13.83 42.07,13.39 C41.28,13.11 40.99,12.95 40.28,12.5 L41.91,9.72 C43.09,10.65 44.17,11.07 45.29,11.07 C46.43,11.07 47.14,10.55 47.14,9.75 C47.14,9.48 47.02,9.22 46.83,9.04 C46.44,8.68 46.08,8.54 44.85,8.22 C43.63,7.9 43.16,7.74 42.61,7.47 C41.45,6.94 40.88,5.94 40.88,4.5 C40.88,1.81 42.9,-1.42108547e-14 45.89,-1.42108547e-14 C47.44,-1.42108547e-14 49.09,0.37 50.57,1.09 L49.03,3.79 Z"></path>
                    <polygon points="56.02 3.26 56.02 5.49 60.32 5.49 60.32 8.43 56.02 8.43 56.02 10.74 60.56 10.74 60.56 13.68 52.19 13.68 52.19 0.32 60.56 0.32 60.56 3.26 56.02 3.26"></polygon>
                    <polygon points="85.32 0.32 89.9 0.32 92.69 3.95 95.36 0.32 100 0.32 94.48 7.26 94.48 13.67 90.65 13.67 90.65 7.26"></polygon>
                    <polygon points="83.84 0.32 79.94 0.32 76.27 8.95 73.37 0.32 70.32 0.32 67.2 8.95 64.64 0.32 60.66 0.32 65.04 13.67 68.93 13.67 71.76 5.95 74.45 13.67 78.07 13.67 81.74 4.45 83.31 8.71 81.81 8.71 79.16 11.36 84.35 11.36 85.31 13.67 89.4 13.67"></polygon>
                    <polygon points="21.67 0.32 17.51 0.32 11.85 13.67 15.89 13.67 19.57 4.45 21.14 8.71 19.6 8.71 16.96 11.36 22.18 11.36 23.14 13.67 27.23 13.67"></polygon>
                </g>
                <g transform="translate(116.710000, 14.020000)" fill-rule="nonzero" id="Path">
                    <path d="M19.36,9.68 C19.36,15.02 15.03,19.36 9.68,19.36 C4.34,19.36 0,15.03 0,9.68 C0,4.34 4.33,0 9.68,0 C15.03,0 19.36,4.33 19.36,9.68 Z" fill="#FF6A13"></path>
                    <polygon fill="#FFFFFF" points="7.97 1.89 11.51 5.62 15.26 4.48 13.61 7.96 16.87 11.44 12.37 10.53 9.97 15.55 9.11 9.75 3.04 8.45 8.63 6.59"></polygon>
                </g>
                <path d="M131,0.97 L131,4.28 L131,4.4 C131,4.47 130.94,4.52 130.9,4.52 C130.86,4.52 130.8,4.48 130.72,4.43 C130.13,3.93 128.8,3.49 127.79,3.49 C125.47,3.49 123.68,5.07 123.68,7.12 C123.68,9.06 125.41,10.48 127.75,10.48 C128.91,10.48 130.09,10.09 130.74,9.5 C130.8,9.43 130.86,9.39 130.9,9.39 C131,9.39 131.02,9.44 131.02,9.73 L131.02,13.04 C131.02,13.29 130.9,13.38 130.47,13.52 C129.43,13.84 128.49,14 127.56,14 C126.22,14 124.91,13.68 123.69,13.07 C121.14,11.79 119.74,9.67 119.74,7.07 C119.74,3.14 123.2,-7.10542736e-15 127.52,-7.10542736e-15 C128.46,-7.10542736e-15 129.8,0.21 130.51,0.5 L130.73,0.59 C130.96,0.7 131,0.77 131,0.97 Z" id="Path"></path>
                <path d="M131,34.31 L131,37.62 L131,37.74 C131,37.81 130.94,37.86 130.9,37.86 C130.86,37.86 130.8,37.82 130.72,37.77 C130.13,37.27 128.8,36.83 127.79,36.83 C125.47,36.83 123.68,38.41 123.68,40.46 C123.68,42.4 125.41,43.82 127.75,43.82 C128.91,43.82 130.09,43.43 130.74,42.84 C130.8,42.77 130.86,42.73 130.9,42.73 C131,42.73 131.02,42.78 131.02,43.07 L131.02,46.38 C131.02,46.63 130.9,46.72 130.47,46.86 C129.43,47.18 128.49,47.34 127.56,47.34 C126.22,47.34 124.91,47.02 123.69,46.41 C121.14,45.13 119.74,43.01 119.74,40.41 C119.74,36.48 123.2,33.34 127.52,33.34 C128.46,33.34 129.8,33.55 130.51,33.84 L130.73,33.93 C130.96,34.05 131,34.12 131,34.31 Z" id="Path"></path>
                <path d="M137.01,19.1 L140.32,19.1 L140.44,19.1 C140.51,19.1 140.56,19.16 140.56,19.2 C140.56,19.24 140.52,19.3 140.47,19.38 C139.97,19.97 139.53,21.3 139.53,22.31 C139.53,24.63 141.11,26.42 143.16,26.42 C145.1,26.42 146.52,24.69 146.52,22.35 C146.52,21.19 146.13,20.01 145.54,19.36 C145.47,19.3 145.43,19.24 145.43,19.2 C145.43,19.1 145.48,19.08 145.77,19.08 L149.08,19.08 C149.33,19.08 149.42,19.2 149.56,19.63 C149.88,20.67 150.04,21.61 150.04,22.54 C150.04,23.88 149.72,25.19 149.11,26.41 C147.83,28.96 145.71,30.36 143.11,30.36 C139.18,30.36 136.04,26.9 136.04,22.58 C136.04,21.64 136.25,20.3 136.54,19.59 L136.63,19.37 C136.75,19.14 136.82,19.1 137.01,19.1 Z" id="Path"></path>
                <path d="M0.97,19.1 L4.28,19.1 L4.4,19.1 C4.47,19.1 4.52,19.16 4.52,19.2 C4.52,19.24 4.48,19.3 4.43,19.38 C3.93,19.97 3.49,21.3 3.49,22.31 C3.49,24.63 5.07,26.42 7.12,26.42 C9.06,26.42 10.48,24.69 10.48,22.35 C10.48,21.19 10.09,20.01 9.5,19.36 C9.43,19.3 9.39,19.24 9.39,19.2 C9.39,19.1 9.44,19.08 9.73,19.08 L13.04,19.08 C13.29,19.08 13.38,19.2 13.52,19.63 C13.84,20.67 14,21.61 14,22.54 C14,23.88 13.68,25.19 13.07,26.41 C11.79,28.96 9.67,30.36 7.07,30.36 C3.14,30.36 0,26.9 0,22.58 C0,21.64 0.21,20.3 0.5,19.59 L0.59,19.37 C0.71,19.14 0.78,19.1 0.97,19.1 Z" id="Path"></path>
            </g>
            <g id="Group" transform="translate(1.550000, 0.000000)" fill="#FFFFFF" fill-rule="nonzero">
                <path d="M15.51,29.15 C15.51,28 15.08,27.11 14.21,26.48 C13.34,25.85 11.84,25.3 9.69,24.84 C7.54,24.38 5.83,23.83 4.57,23.19 C3.31,22.55 2.37,21.78 1.77,20.9 C1.17,20.01 0.86,18.96 0.86,17.73 C0.86,15.7 1.72,13.98 3.44,12.57 C5.16,11.16 7.36,10.46 10.04,10.46 C12.85,10.46 15.14,11.19 16.89,12.64 C18.64,14.09 19.52,15.95 19.52,18.22 L15.25,18.22 C15.25,17.06 14.76,16.05 13.77,15.21 C12.78,14.37 11.54,13.95 10.04,13.95 C8.49,13.95 7.29,14.29 6.41,14.96 C5.54,15.63 5.1,16.51 5.1,17.6 C5.1,18.62 5.51,19.4 6.32,19.92 C7.13,20.44 8.6,20.94 10.71,21.41 C12.83,21.88 14.55,22.45 15.86,23.11 C17.18,23.77 18.15,24.56 18.79,25.49 C19.43,26.42 19.74,27.54 19.74,28.87 C19.74,31.09 18.85,32.87 17.08,34.21 C15.31,35.55 13,36.22 10.17,36.22 C8.18,36.22 6.42,35.87 4.89,35.16 C3.36,34.46 2.16,33.47 1.3,32.21 C0.44,30.95 -1.42108547e-14,29.58 -1.42108547e-14,28.11 L4.25,28.11 C4.33,29.53 4.9,30.66 5.96,31.5 C7.02,32.33 8.43,32.75 10.17,32.75 C11.78,32.75 13.07,32.42 14.04,31.77 C15.02,31.1 15.51,30.23 15.51,29.15 Z" id="Path"></path>
                <path d="M46.26,23.59 C46.26,27.37 45.4,30.41 43.67,32.72 C41.94,35.03 39.6,36.18 36.65,36.18 C33.64,36.18 31.26,35.22 29.54,33.31 L29.54,45.27 L25.29,45.27 L25.29,10.9 L29.17,10.9 L29.38,13.65 C31.11,11.51 33.51,10.44 36.59,10.44 C39.57,10.44 41.93,11.56 43.67,13.81 C45.41,16.06 46.27,19.19 46.27,23.2 L46.27,23.59 L46.26,23.59 Z M42.02,23.11 C42.02,20.31 41.42,18.1 40.23,16.48 C39.04,14.86 37.4,14.05 35.32,14.05 C32.75,14.05 30.82,15.19 29.54,17.47 L29.54,29.34 C30.81,31.6 32.75,32.74 35.37,32.74 C37.4,32.74 39.02,31.93 40.22,30.32 C41.42,28.69 42.02,26.29 42.02,23.11 Z" id="Shape"></path>
                <path d="M61.96,36.19 C58.59,36.19 55.86,35.08 53.74,32.87 C51.63,30.66 50.57,27.7 50.57,24 L50.57,23.22 C50.57,20.76 51.04,18.56 51.98,16.62 C52.92,14.69 54.24,13.17 55.93,12.08 C57.62,10.99 59.45,10.44 61.43,10.44 C64.66,10.44 67.17,11.5 68.96,13.63 C70.75,15.76 71.65,18.8 71.65,22.76 L71.65,24.53 L54.82,24.53 C54.88,26.98 55.6,28.96 56.97,30.46 C58.34,31.96 60.08,32.72 62.19,32.72 C63.69,32.72 64.96,32.41 66,31.8 C67.04,31.19 67.95,30.38 68.73,29.37 L71.32,31.39 C69.24,34.59 66.12,36.19 61.96,36.19 Z M61.43,13.93 C59.72,13.93 58.28,14.55 57.12,15.8 C55.96,17.05 55.24,18.8 54.96,21.04 L67.4,21.04 L67.4,20.72 C67.28,18.56 66.7,16.89 65.66,15.71 C64.61,14.52 63.21,13.93 61.43,13.93 Z" id="Shape"></path>
                <path d="M86.52,32.73 C88.03,32.73 89.36,32.27 90.49,31.35 C91.62,30.43 92.25,29.28 92.37,27.91 L96.39,27.91 C96.31,29.33 95.82,30.69 94.92,31.97 C94.02,33.26 92.81,34.28 91.31,35.05 C89.8,35.81 88.21,36.2 86.52,36.2 C83.14,36.2 80.45,35.07 78.45,32.82 C76.45,30.56 75.45,27.48 75.45,23.56 L75.45,22.84 C75.45,20.42 75.89,18.27 76.78,16.39 C77.67,14.51 78.94,13.05 80.6,12.01 C82.26,10.97 84.22,10.45 86.49,10.45 C89.27,10.45 91.59,11.28 93.43,12.95 C95.27,14.62 96.26,16.78 96.38,19.45 L92.36,19.45 C92.24,17.84 91.63,16.52 90.54,15.49 C89.45,14.46 88.1,13.94 86.49,13.94 C84.33,13.94 82.66,14.72 81.48,16.27 C80.29,17.82 79.7,20.07 79.7,23.01 L79.7,23.81 C79.7,26.67 80.29,28.87 81.47,30.42 C82.64,31.95 84.33,32.73 86.52,32.73 Z" id="Path"></path>
                <path d="M101.18,4.32 C101.18,3.63 101.39,3.05 101.81,2.58 C102.23,2.11 102.85,1.87 103.68,1.87 C104.51,1.87 105.13,2.11 105.56,2.58 C105.99,3.05 106.2,3.64 106.2,4.32 C106.2,5.01 105.99,5.58 105.56,6.04 C105.13,6.5 104.5,6.73 103.68,6.73 C102.86,6.73 102.23,6.5 101.81,6.04 C101.39,5.58 101.18,5 101.18,4.32 Z M105.77,35.73 L101.52,35.73 L101.52,10.9 L105.77,10.9 L105.77,35.73 Z" id="Shape"></path>
                <path d="M114.65,35.73 L114.65,14.18 L110.73,14.18 L110.73,10.9 L114.65,10.9 L114.65,8.35 C114.65,5.69 115.36,3.63 116.78,2.18 C118.2,0.73 120.21,0 122.82,0 C123.8,0 124.77,0.13 125.73,0.39 L125.5,3.81 C124.78,3.67 124.02,3.6 123.21,3.6 C121.83,3.6 120.77,4 120.02,4.81 C119.27,5.62 118.9,6.77 118.9,8.27 L118.9,10.89 L124.2,10.89 L124.2,14.17 L118.9,14.17 L118.9,35.72 L114.65,35.72 L114.65,35.73 Z" id="Path"></path>
                <path d="M128.9,4.32 C128.9,3.63 129.11,3.05 129.53,2.58 C129.95,2.11 130.57,1.87 131.4,1.87 C132.23,1.87 132.85,2.11 133.28,2.58 C133.71,3.05 133.92,3.64 133.92,4.32 C133.92,5.01 133.71,5.58 133.28,6.04 C132.85,6.5 132.22,6.73 131.4,6.73 C130.58,6.73 129.95,6.5 129.53,6.04 C129.11,5.58 128.9,5 128.9,4.32 Z M133.49,35.73 L129.24,35.73 L129.24,10.9 L133.49,10.9 L133.49,35.73 Z" id="Shape"></path>
                <path d="M150.59,36.19 C147.22,36.19 144.49,35.08 142.37,32.87 C140.26,30.66 139.2,27.7 139.2,24 L139.2,23.22 C139.2,20.76 139.67,18.56 140.61,16.62 C141.55,14.69 142.87,13.17 144.56,12.08 C146.25,10.99 148.08,10.44 150.06,10.44 C153.29,10.44 155.8,11.5 157.59,13.63 C159.38,15.76 160.28,18.8 160.28,22.76 L160.28,24.53 L143.46,24.53 C143.52,26.98 144.24,28.96 145.61,30.46 C146.98,31.96 148.72,32.72 150.83,32.72 C152.33,32.72 153.6,32.41 154.64,31.8 C155.68,31.19 156.59,30.38 157.37,29.37 L159.96,31.39 C157.87,34.59 154.75,36.19 150.59,36.19 Z M150.06,13.93 C148.35,13.93 146.91,14.55 145.75,15.8 C144.59,17.05 143.87,18.8 143.59,21.04 L156.03,21.04 L156.03,20.72 C155.91,18.56 155.33,16.89 154.29,15.71 C153.24,14.52 151.84,13.93 150.06,13.93 Z" id="Shape"></path>
                <path d="M164.15,23.11 C164.15,19.3 165.05,16.24 166.86,13.92 C168.67,11.6 171.03,10.44 173.95,10.44 C176.86,10.44 179.16,11.44 180.86,13.42 L180.86,0.48 L185.11,0.48 L185.11,35.73 L181.21,35.73 L181,33.07 C179.3,35.15 176.94,36.19 173.91,36.19 C171.03,36.19 168.69,35.01 166.88,32.66 C165.07,30.3 164.16,27.23 164.16,23.43 L164.16,23.11 L164.15,23.11 Z M168.4,23.59 C168.4,26.41 168.98,28.61 170.14,30.2 C171.3,31.79 172.91,32.59 174.96,32.59 C177.65,32.59 179.62,31.38 180.86,28.97 L180.86,17.56 C179.59,15.22 177.64,14.05 175.01,14.05 C172.93,14.05 171.31,14.85 170.14,16.46 C168.98,18.06 168.4,20.44 168.4,23.59 Z" id="Shape"></path>
                <path d="M212.05,23.57 C212.05,27.44 211.19,30.51 209.48,32.78 C207.77,35.05 205.46,36.19 202.57,36.19 C199.11,36.19 196.5,34.9 194.72,32.33 L194.61,35.73 L192.04,35.73 L192.04,0.48 L194.77,0.48 L194.77,14.5 C196.51,11.79 199.1,10.44 202.53,10.44 C205.47,10.44 207.79,11.56 209.49,13.8 C211.19,16.04 212.05,19.16 212.05,23.15 L212.05,23.57 L212.05,23.57 Z M209.29,23.09 C209.29,19.82 208.65,17.29 207.39,15.51 C206.12,13.73 204.33,12.84 202.02,12.84 C200.26,12.84 198.77,13.27 197.54,14.14 C196.32,15 195.39,16.27 194.76,17.94 L194.76,29.14 C196.14,32.26 198.57,33.82 202.06,33.82 C204.32,33.82 206.1,32.93 207.37,31.13 C208.65,29.33 209.29,26.65 209.29,23.09 Z" id="Shape"></path>
                <path d="M225.73,31.79 L232.98,10.91 L235.94,10.91 L225.34,39.96 L224.79,41.25 C223.43,44.26 221.32,45.77 218.48,45.77 C217.82,45.77 217.12,45.66 216.37,45.45 L216.35,43.18 L217.77,43.32 C219.12,43.32 220.21,42.99 221.04,42.32 C221.87,41.65 222.58,40.51 223.16,38.89 L224.38,35.54 L215.02,10.92 L218.03,10.92 L225.73,31.79 Z" id="Path"></path>
            </g>
        </g>
    </g>
</svg>