<?xml version="1.0" encoding="UTF-8"?>
<svg width="325px" height="79px" viewBox="0 0 325 79" version="1.1" xmlns="http://www.w3.org/2000/svg" xmlns:xlink="http://www.w3.org/1999/xlink">
    <title>SpecifiedBy Logo</title>
    <g id="Page-1" stroke="none" stroke-width="1" fill="none" fill-rule="evenodd">
        <g id="SpecifiedBy-Logo" transform="translate(0.970000, 0.330000)" fill-rule="nonzero">
            <g id="Group">
                <g transform="translate(89.410000, 56.050000)" fill="#101820">
                    <path d="M7.59,15.96 C7.47,15.61 7.39,15.1 7.35,14.41 C6.92,14.97 6.37,15.4 5.7,15.71 C5.03,16.01 4.33,16.17 3.58,16.17 C2.51,16.17 1.65,15.87 0.99,15.28 C0.33,14.69 0,13.93 0,13.02 C0,11.94 0.45,11.09 1.35,10.46 C2.25,9.83 3.5,9.52 5.11,9.52 L7.34,9.52 L7.34,8.26 C7.34,7.47 7.1,6.84 6.61,6.39 C6.12,5.93 5.41,5.71 4.47,5.71 C3.62,5.71 2.91,5.93 2.35,6.37 C1.79,6.81 1.51,7.33 1.51,7.95 L0.28,7.94 C0.28,7.06 0.69,6.29 1.51,5.65 C2.33,5 3.34,4.68 4.53,4.68 C5.77,4.68 6.74,4.99 7.46,5.61 C8.17,6.23 8.54,7.09 8.56,8.2 L8.56,13.45 C8.56,14.52 8.67,15.33 8.9,15.86 L8.9,15.98 L7.59,15.98 L7.59,15.96 Z M3.73,15.08 C4.55,15.08 5.28,14.88 5.93,14.49 C6.58,14.09 7.05,13.56 7.34,12.9 L7.34,10.46 L5.15,10.46 C3.93,10.47 2.97,10.7 2.28,11.13 C1.59,11.56 1.24,12.16 1.24,12.92 C1.24,13.54 1.47,14.06 1.93,14.47 C2.4,14.88 3,15.08 3.73,15.08 Z" id="Shape"></path>
                    <path d="M25.86,10.53 C25.86,12.26 25.48,13.63 24.71,14.65 C23.94,15.66 22.92,16.17 21.63,16.17 C20.11,16.17 18.95,15.64 18.14,14.57 L18.14,20.23 L16.92,20.23 L16.92,4.87 L18.06,4.87 L18.12,6.44 C18.92,5.26 20.08,4.67 21.6,4.67 C22.93,4.67 23.97,5.17 24.72,6.18 C25.47,7.19 25.85,8.58 25.85,10.36 L25.85,10.53 L25.86,10.53 Z M24.63,10.31 C24.63,8.9 24.34,7.78 23.76,6.96 C23.18,6.14 22.37,5.73 21.33,5.73 C20.58,5.73 19.93,5.91 19.39,6.27 C18.85,6.63 18.44,7.16 18.15,7.85 L18.15,13.17 C18.44,13.81 18.86,14.29 19.41,14.63 C19.96,14.97 20.6,15.13 21.35,15.13 C22.38,15.13 23.19,14.72 23.77,13.89 C24.34,13.07 24.63,11.88 24.63,10.31 Z" id="Shape"></path>
                    <path d="M33.71,5.92 C33.45,5.87 33.17,5.85 32.88,5.85 C32.11,5.85 31.47,6.06 30.94,6.49 C30.41,6.92 30.03,7.54 29.81,8.35 L29.81,15.97 L28.59,15.97 L28.59,4.87 L29.79,4.87 L29.81,6.63 C30.46,5.32 31.5,4.66 32.94,4.66 C33.28,4.66 33.55,4.7 33.75,4.79 L33.71,5.92 Z" id="Path"></path>
                    <path d="M34.76,10.25 C34.76,9.18 34.97,8.22 35.38,7.37 C35.79,6.52 36.38,5.85 37.13,5.38 C37.88,4.9 38.74,4.67 39.7,4.67 C41.18,4.67 42.37,5.19 43.29,6.22 C44.21,7.26 44.66,8.63 44.66,10.34 L44.66,10.6 C44.66,11.67 44.45,12.64 44.04,13.5 C43.63,14.36 43.04,15.02 42.29,15.48 C41.54,15.94 40.68,16.18 39.72,16.18 C38.25,16.18 37.06,15.66 36.14,14.63 C35.22,13.59 34.76,12.22 34.76,10.51 L34.76,10.25 Z M35.99,10.59 C35.99,11.92 36.33,13.01 37.02,13.86 C37.71,14.71 38.61,15.14 39.72,15.14 C40.83,15.14 41.72,14.71 42.41,13.86 C43.1,13.01 43.44,11.89 43.44,10.49 L43.44,10.25 C43.44,9.4 43.28,8.63 42.97,7.92 C42.66,7.21 42.21,6.67 41.65,6.28 C41.08,5.89 40.43,5.7 39.7,5.7 C38.61,5.7 37.71,6.13 37.02,6.99 C36.33,7.85 35.98,8.97 35.98,10.36 L35.98,10.59 L35.99,10.59 Z" id="Shape"></path>
                    <path d="M46.71,10.31 C46.71,8.59 47.09,7.22 47.86,6.19 C48.63,5.17 49.67,4.66 50.99,4.66 C52.49,4.66 53.63,5.25 54.41,6.43 L54.41,0.21 L55.63,0.21 L55.63,15.96 L54.48,15.96 L54.43,14.48 C53.64,15.6 52.49,16.16 50.96,16.16 C49.68,16.16 48.65,15.65 47.87,14.62 C47.09,13.59 46.7,12.2 46.7,10.45 L46.7,10.31 L46.71,10.31 Z M47.95,10.53 C47.95,11.95 48.23,13.06 48.8,13.88 C49.37,14.7 50.17,15.11 51.2,15.11 C52.71,15.11 53.78,14.44 54.42,13.11 L54.42,7.9 C53.78,6.46 52.72,5.74 51.22,5.74 C50.19,5.74 49.38,6.15 48.81,6.95 C48.24,7.76 47.95,8.95 47.95,10.53 Z" id="Shape"></path>
                    <path d="M66.01,14.56 C65.27,15.63 64.09,16.17 62.47,16.17 C61.29,16.17 60.39,15.83 59.77,15.14 C59.15,14.45 58.84,13.44 58.83,12.09 L58.83,4.87 L60.05,4.87 L60.05,11.94 C60.05,14.05 60.9,15.11 62.61,15.11 C64.39,15.11 65.51,14.38 65.98,12.9 L65.98,4.87 L67.21,4.87 L67.21,15.96 L66.02,15.96 L66.01,14.56 Z" id="Path"></path>
                    <path d="M74.51,15.13 C75.36,15.13 76.08,14.89 76.66,14.41 C77.24,13.93 77.55,13.3 77.6,12.54 L78.78,12.54 C78.75,13.22 78.53,13.83 78.14,14.39 C77.75,14.95 77.23,15.38 76.59,15.7 C75.94,16.01 75.25,16.17 74.51,16.17 C73.05,16.17 71.9,15.66 71.05,14.65 C70.2,13.64 69.77,12.28 69.77,10.57 L69.77,10.2 C69.77,9.11 69.96,8.14 70.34,7.3 C70.72,6.46 71.27,5.81 71.99,5.35 C72.7,4.89 73.54,4.66 74.5,4.66 C75.72,4.66 76.72,5.02 77.51,5.75 C78.3,6.47 78.72,7.43 78.78,8.61 L77.6,8.61 C77.55,7.74 77.23,7.04 76.66,6.51 C76.09,5.98 75.37,5.71 74.5,5.71 C73.39,5.71 72.53,6.11 71.92,6.91 C71.31,7.71 71,8.83 71,10.27 L71,10.63 C71,12.05 71.31,13.15 71.92,13.94 C72.53,14.74 73.39,15.13 74.51,15.13 Z" id="Path"></path>
                    <path d="M83.13,2.03 L83.13,4.87 L85.43,4.87 L85.43,5.87 L83.13,5.87 L83.13,13.27 C83.13,13.89 83.24,14.34 83.46,14.65 C83.68,14.95 84.05,15.1 84.57,15.1 C84.78,15.1 85.11,15.07 85.56,15 L85.61,16 C85.29,16.12 84.85,16.17 84.3,16.17 C83.46,16.17 82.85,15.93 82.46,15.44 C82.08,14.95 81.89,14.23 81.89,13.28 L81.89,5.88 L79.85,5.88 L79.85,4.88 L81.89,4.88 L81.89,2.04 L83.13,2.04 L83.13,2.03 Z" id="Path"></path>
                    <path d="M92.4,10.25 C92.4,9.18 92.61,8.22 93.02,7.37 C93.43,6.52 94.02,5.85 94.77,5.38 C95.52,4.9 96.38,4.67 97.34,4.67 C98.82,4.67 100.01,5.19 100.93,6.22 C101.85,7.26 102.3,8.63 102.3,10.34 L102.3,10.6 C102.3,11.67 102.09,12.64 101.68,13.5 C101.27,14.36 100.68,15.02 99.93,15.48 C99.18,15.94 98.32,16.18 97.36,16.18 C95.89,16.18 94.7,15.66 93.78,14.63 C92.86,13.59 92.4,12.22 92.4,10.51 L92.4,10.25 Z M93.63,10.59 C93.63,11.92 93.97,13.01 94.66,13.86 C95.35,14.71 96.25,15.14 97.36,15.14 C98.47,15.14 99.36,14.71 100.05,13.86 C100.74,13.01 101.08,11.89 101.08,10.49 L101.08,10.25 C101.08,9.4 100.92,8.63 100.61,7.92 C100.3,7.21 99.85,6.67 99.29,6.28 C98.72,5.89 98.07,5.7 97.34,5.7 C96.25,5.7 95.35,6.13 94.66,6.99 C93.97,7.85 93.62,8.97 93.62,10.36 L93.62,10.59 L93.63,10.59 Z" id="Shape"></path>
                    <path d="M105.72,15.96 L105.72,5.87 L103.88,5.87 L103.88,4.87 L105.72,4.87 L105.72,3.53 C105.72,2.4 106.01,1.52 106.59,0.91 C107.17,0.3 107.97,0 109.01,0 C109.47,0 109.91,0.06 110.31,0.17 L110.22,1.19 C109.88,1.11 109.51,1.07 109.1,1.07 C108.42,1.07 107.9,1.28 107.52,1.7 C107.14,2.12 106.96,2.72 106.96,3.49 L106.96,4.87 L109.61,4.87 L109.61,5.87 L106.96,5.87 L106.96,15.96 L105.72,15.96 L105.72,15.96 Z" id="Path"></path>
                </g>
                <g transform="translate(87.590000, 6.020000)" fill="#101820">
                    <path d="M15.51,29.14 C15.51,27.99 15.08,27.1 14.21,26.47 C13.34,25.84 11.84,25.29 9.69,24.83 C7.54,24.37 5.83,23.82 4.57,23.18 C3.31,22.54 2.37,21.77 1.77,20.89 C1.17,20 0.86,18.95 0.86,17.72 C0.86,15.69 1.72,13.97 3.44,12.56 C5.16,11.15 7.36,10.45 10.04,10.45 C12.85,10.45 15.14,11.18 16.89,12.63 C18.64,14.08 19.52,15.94 19.52,18.21 L15.25,18.21 C15.25,17.05 14.76,16.04 13.77,15.2 C12.78,14.36 11.54,13.94 10.04,13.94 C8.49,13.94 7.29,14.28 6.41,14.95 C5.54,15.62 5.1,16.5 5.1,17.59 C5.1,18.61 5.51,19.39 6.32,19.91 C7.13,20.43 8.6,20.93 10.71,21.4 C12.83,21.87 14.55,22.44 15.86,23.1 C17.18,23.76 18.15,24.55 18.79,25.48 C19.43,26.41 19.74,27.53 19.74,28.86 C19.74,31.08 18.85,32.86 17.08,34.2 C15.31,35.54 13,36.21 10.17,36.21 C8.18,36.21 6.42,35.86 4.89,35.15 C3.36,34.45 2.16,33.46 1.3,32.2 C0.44,30.94 0,29.57 0,28.1 L4.25,28.1 C4.33,29.52 4.9,30.65 5.96,31.49 C7.02,32.32 8.43,32.74 10.17,32.74 C11.78,32.74 13.07,32.41 14.04,31.76 C15.03,31.09 15.51,30.22 15.51,29.14 Z" id="Path"></path>
                    <path d="M46.26,23.58 C46.26,27.36 45.4,30.4 43.67,32.71 C41.94,35.02 39.6,36.17 36.65,36.17 C33.64,36.17 31.26,35.21 29.54,33.3 L29.54,45.26 L25.29,45.26 L25.29,10.89 L29.17,10.89 L29.38,13.64 C31.11,11.5 33.51,10.43 36.59,10.43 C39.57,10.43 41.93,11.55 43.67,13.8 C45.41,16.05 46.27,19.18 46.27,23.19 L46.27,23.58 L46.26,23.58 Z M42.02,23.1 C42.02,20.3 41.42,18.09 40.23,16.47 C39.04,14.85 37.4,14.04 35.32,14.04 C32.75,14.04 30.82,15.18 29.54,17.46 L29.54,29.33 C30.81,31.59 32.75,32.73 35.37,32.73 C37.4,32.73 39.02,31.92 40.22,30.31 C41.42,28.68 42.02,26.29 42.02,23.1 Z" id="Shape"></path>
                    <path d="M61.96,36.18 C58.59,36.18 55.86,35.07 53.74,32.86 C51.63,30.65 50.57,27.69 50.57,23.99 L50.57,23.21 C50.57,20.75 51.04,18.55 51.98,16.61 C52.92,14.68 54.24,13.16 55.93,12.07 C57.62,10.98 59.45,10.43 61.43,10.43 C64.66,10.43 67.17,11.49 68.96,13.62 C70.75,15.75 71.65,18.79 71.65,22.75 L71.65,24.52 L54.83,24.52 C54.89,26.97 55.61,28.95 56.98,30.45 C58.35,31.95 60.09,32.71 62.2,32.71 C63.7,32.71 64.97,32.4 66.01,31.79 C67.05,31.18 67.96,30.37 68.74,29.36 L71.33,31.38 C69.24,34.59 66.12,36.18 61.96,36.18 Z M61.43,13.92 C59.72,13.92 58.28,14.54 57.12,15.79 C55.96,17.04 55.24,18.79 54.96,21.03 L67.4,21.03 L67.4,20.71 C67.28,18.55 66.7,16.88 65.66,15.7 C64.62,14.52 63.21,13.92 61.43,13.92 Z" id="Shape"></path>
                    <path d="M86.52,32.72 C88.03,32.72 89.36,32.26 90.49,31.34 C91.62,30.42 92.25,29.27 92.37,27.9 L96.39,27.9 C96.31,29.32 95.82,30.68 94.92,31.96 C94.02,33.25 92.81,34.27 91.31,35.04 C89.8,35.8 88.21,36.19 86.52,36.19 C83.14,36.19 80.45,35.06 78.45,32.81 C76.45,30.55 75.45,27.47 75.45,23.55 L75.45,22.84 C75.45,20.42 75.89,18.27 76.78,16.39 C77.67,14.51 78.94,13.05 80.6,12.01 C82.26,10.97 84.22,10.45 86.49,10.45 C89.27,10.45 91.59,11.28 93.43,12.95 C95.27,14.62 96.26,16.78 96.38,19.45 L92.36,19.45 C92.24,17.84 91.63,16.52 90.54,15.49 C89.45,14.46 88.1,13.94 86.49,13.94 C84.33,13.94 82.66,14.72 81.48,16.27 C80.29,17.82 79.7,20.07 79.7,23.01 L79.7,23.81 C79.7,26.67 80.29,28.87 81.47,30.42 C82.65,31.95 84.33,32.72 86.52,32.72 Z" id="Path"></path>
                    <path d="M101.18,4.31 C101.18,3.62 101.39,3.04 101.81,2.57 C102.23,2.1 102.85,1.86 103.68,1.86 C104.51,1.86 105.13,2.1 105.56,2.57 C105.99,3.04 106.2,3.63 106.2,4.31 C106.2,5 105.99,5.57 105.56,6.03 C105.13,6.49 104.5,6.72 103.68,6.72 C102.86,6.72 102.23,6.49 101.81,6.03 C101.39,5.57 101.18,5 101.18,4.31 Z M105.77,35.72 L101.52,35.72 L101.52,10.89 L105.77,10.89 L105.77,35.72 Z" id="Shape"></path>
                    <path d="M114.65,35.72 L114.65,14.18 L110.73,14.18 L110.73,10.9 L114.65,10.9 L114.65,8.35 C114.65,5.69 115.36,3.63 116.78,2.18 C118.2,0.73 120.21,-7.10542736e-15 122.82,-7.10542736e-15 C123.8,-7.10542736e-15 124.77,0.13 125.73,0.39 L125.5,3.81 C124.78,3.67 124.02,3.6 123.21,3.6 C121.83,3.6 120.77,4 120.02,4.81 C119.27,5.62 118.9,6.77 118.9,8.27 L118.9,10.89 L124.2,10.89 L124.2,14.17 L118.9,14.17 L118.9,35.72 L114.65,35.72 L114.65,35.72 Z" id="Path"></path>
                    <path d="M128.9,4.31 C128.9,3.62 129.11,3.04 129.53,2.57 C129.95,2.1 130.57,1.86 131.4,1.86 C132.23,1.86 132.85,2.1 133.28,2.57 C133.71,3.04 133.92,3.63 133.92,4.31 C133.92,5 133.71,5.57 133.28,6.03 C132.85,6.49 132.22,6.72 131.4,6.72 C130.58,6.72 129.95,6.49 129.53,6.03 C129.11,5.57 128.9,5 128.9,4.31 Z M133.49,35.72 L129.24,35.72 L129.24,10.89 L133.49,10.89 L133.49,35.72 Z" id="Shape"></path>
                    <path d="M150.59,36.18 C147.22,36.18 144.49,35.07 142.37,32.86 C140.26,30.65 139.2,27.69 139.2,23.99 L139.2,23.21 C139.2,20.75 139.67,18.55 140.61,16.61 C141.55,14.68 142.87,13.16 144.56,12.07 C146.25,10.98 148.08,10.43 150.06,10.43 C153.29,10.43 155.8,11.49 157.59,13.62 C159.38,15.75 160.28,18.79 160.28,22.75 L160.28,24.52 L143.46,24.52 C143.52,26.97 144.24,28.95 145.61,30.45 C146.98,31.95 148.72,32.71 150.83,32.71 C152.33,32.71 153.6,32.4 154.64,31.79 C155.68,31.18 156.59,30.37 157.37,29.36 L159.96,31.38 C157.87,34.59 154.75,36.18 150.59,36.18 Z M150.06,13.92 C148.35,13.92 146.91,14.54 145.75,15.79 C144.59,17.04 143.87,18.79 143.59,21.03 L156.03,21.03 L156.03,20.71 C155.91,18.55 155.33,16.88 154.29,15.7 C153.25,14.52 151.84,13.92 150.06,13.92 Z" id="Shape"></path>
                    <path d="M164.15,23.1 C164.15,19.29 165.05,16.23 166.86,13.91 C168.67,11.59 171.03,10.43 173.95,10.43 C176.86,10.43 179.16,11.43 180.86,13.41 L180.86,0.47 L185.11,0.47 L185.11,35.72 L181.21,35.72 L181,33.06 C179.3,35.14 176.94,36.18 173.91,36.18 C171.03,36.18 168.69,35 166.88,32.65 C165.07,30.29 164.16,27.22 164.16,23.42 L164.16,23.1 L164.15,23.1 Z M168.4,23.58 C168.4,26.4 168.98,28.6 170.14,30.19 C171.3,31.78 172.91,32.58 174.96,32.58 C177.65,32.58 179.62,31.37 180.86,28.96 L180.86,17.55 C179.59,15.21 177.64,14.04 175.01,14.04 C172.93,14.04 171.31,14.84 170.14,16.45 C168.98,18.05 168.4,20.43 168.4,23.58 Z" id="Shape"></path>
                    <path d="M212.05,23.56 C212.05,27.43 211.19,30.5 209.48,32.77 C207.77,35.04 205.46,36.18 202.57,36.18 C199.11,36.18 196.5,34.89 194.72,32.32 L194.61,35.72 L192.04,35.72 L192.04,0.47 L194.77,0.47 L194.77,14.49 C196.51,11.78 199.1,10.43 202.53,10.43 C205.47,10.43 207.79,11.55 209.49,13.79 C211.19,16.03 212.05,19.15 212.05,23.14 L212.05,23.56 L212.05,23.56 Z M209.3,23.08 C209.3,19.81 208.66,17.28 207.4,15.5 C206.13,13.72 204.34,12.83 202.03,12.83 C200.27,12.83 198.78,13.26 197.55,14.13 C196.33,14.99 195.4,16.26 194.77,17.93 L194.77,29.13 C196.15,32.25 198.58,33.81 202.07,33.81 C204.33,33.81 206.11,32.92 207.38,31.12 C208.66,29.32 209.3,26.64 209.3,23.08 Z" id="Shape"></path>
                    <path d="M225.73,31.78 L232.98,10.9 L235.94,10.9 L225.34,39.95 L224.79,41.24 C223.43,44.25 221.32,45.76 218.48,45.76 C217.82,45.76 217.12,45.65 216.37,45.44 L216.35,43.17 L217.77,43.31 C219.12,43.31 220.21,42.98 221.04,42.31 C221.87,41.64 222.58,40.5 223.16,38.88 L224.38,35.53 L215.02,10.91 L218.03,10.91 L225.73,31.78 Z" id="Path"></path>
                </g>
                <g id="Path">
                    <path d="M78.42,39.21 C78.42,60.86 60.86,78.42 39.21,78.42 C17.56,78.42 0,60.87 0,39.21 C0,17.55 17.55,7.10542736e-15 39.21,7.10542736e-15 C60.86,7.10542736e-15 78.42,17.55 78.42,39.21 Z" fill="#FF6A13"></path>
                    <polygon fill="#FFFFFF" points="32.27 7.65 46.6 22.77 61.8 18.15 55.14 32.28 68.34 46.38 50.11 42.67 40.37 63.03 36.87 39.5 12.28 34.24 34.93 26.71"></polygon>
                </g>
            </g>
            <g id="Group" transform="translate(206.720000, 56.240000)" fill="#101820">
                <path d="M12.71,1.1 L12.71,4.84 L12.71,4.98 C12.71,5.06 12.64,5.12 12.6,5.12 C12.56,5.12 12.49,5.08 12.4,5.02 C11.73,4.46 10.23,3.95 9.1,3.95 C6.48,3.95 4.46,5.74 4.46,8.05 C4.46,10.24 6.41,11.85 9.05,11.85 C10.36,11.85 11.69,11.41 12.42,10.74 C12.49,10.66 12.55,10.62 12.6,10.62 C12.71,10.62 12.73,10.68 12.73,11 L12.73,14.74 C12.73,15.02 12.6,15.12 12.11,15.28 C10.93,15.64 9.87,15.82 8.83,15.82 C7.32,15.82 5.84,15.46 4.46,14.77 C1.58,13.32 0,10.93 0,8 C0,3.56 3.9,0.02 8.78,0.02 C9.84,0.02 11.35,0.26 12.15,0.58 L12.39,0.68 C12.67,0.8 12.71,0.88 12.71,1.1 Z" id="Path"></path>
                <path d="M34.71,8.52 C34.71,10.31 34.75,10.57 35.18,11.21 C35.65,11.95 36.56,12.38 37.6,12.38 C38.69,12.38 39.66,11.9 40.13,11.15 C40.51,10.53 40.57,10.17 40.57,8.52 L40.57,0.36 L44.9,0.36 L44.9,9.06 C44.9,11.31 44.5,12.46 43.28,13.7 C41.88,15.11 39.95,15.83 37.54,15.83 C35.01,15.83 32.75,14.97 31.6,13.56 C30.71,12.49 30.4,11.31 30.4,9.06 L30.4,0.36 L34.73,0.36 L34.73,8.52 L34.71,8.52 Z" id="Path"></path>
                <path d="M55.37,4.28 C54.44,3.58 53.53,3.25 52.55,3.25 C51.49,3.25 50.69,3.81 50.69,4.56 C50.69,4.84 50.82,5.1 51.09,5.3 C51.38,5.54 51.78,5.72 52.2,5.84 C52.44,5.92 52.95,6.04 53.69,6.24 C55.22,6.66 56,7.04 56.71,7.75 C57.46,8.47 57.77,9.28 57.77,10.44 C57.77,11.36 57.5,12.53 57.15,13.17 C56.22,14.8 53.98,15.82 51.29,15.82 C49.98,15.82 48.87,15.6 47.52,15.1 C46.63,14.78 46.3,14.6 45.5,14.1 L47.34,10.96 C48.67,12.01 49.89,12.49 51.15,12.49 C52.44,12.49 53.23,11.91 53.23,11 C53.23,10.7 53.1,10.4 52.88,10.2 C52.44,9.8 52.04,9.64 50.64,9.28 C49.27,8.92 48.73,8.74 48.11,8.44 C46.8,7.84 46.16,6.71 46.16,5.08 C46.16,2.05 48.44,0 51.82,0 C53.57,0 55.44,0.42 57.1,1.23 L55.37,4.28 Z" id="Path"></path>
                <polygon id="Path" points="63.25 3.68 63.25 6.19 68.11 6.19 68.11 9.51 63.25 9.51 63.25 12.12 68.37 12.12 68.37 15.43 58.92 15.43 58.92 0.36 68.37 0.36 68.37 3.68"></polygon>
                <polygon id="Path" points="96.34 0.36 101.51 0.36 104.66 4.46 107.68 0.36 112.91 0.36 106.68 8.2 106.68 15.43 102.36 15.43 102.36 8.19"></polygon>
                <polygon id="Path" points="94.67 0.36 90.27 0.36 86.12 10.11 82.84 0.36 79.4 0.36 75.88 10.11 72.99 0.36 68.49 0.36 73.44 15.43 77.83 15.43 81.02 6.71 84.06 15.43 88.15 15.43 92.3 5.02 94.07 9.83 92.38 9.83 89.39 12.82 95.25 12.82 96.33 15.43 100.95 15.43"></polygon>
                <polygon id="Path" points="24.47 0.36 19.77 0.36 13.38 15.43 17.95 15.43 22.1 5.02 23.87 9.83 22.13 9.83 19.15 12.82 25.05 12.82 26.14 15.43 30.75 15.43"></polygon>
            </g>
        </g>
    </g>
</svg>